<svg id="svg" version="1.1" xmlns="http://www.w3.org/2000/svg" xmlns:xlink="http://www.w3.org/1999/xlink" width="400" height="254.54545454545456" viewBox="0, 0, 400,254.54545454545456"><g id="svgg"><path id="path0" d="M114.067 32.071 C 113.732 32.287,113.677 36.002,113.615 62.499 L 113.544 92.680 85.416 92.680 C 57.628 92.680,57.282 92.686,56.779 93.189 C 56.350 93.618,55.930 93.698,54.106 93.698 L 51.941 93.698 51.941 94.589 C 51.941 95.438,51.899 95.481,51.050 95.481 C 50.142 95.481,50.062 95.618,50.082 97.150 C 50.084 97.298,49.781 97.374,49.408 97.319 C 48.578 97.197,48.018 97.793,48.178 98.627 C 48.268 99.102,48.199 99.206,47.852 99.115 C 47.029 98.900,46.278 99.524,46.395 100.325 C 46.454 100.725,46.437 101.045,46.357 101.037 C 44.946 100.893,44.558 101.095,44.558 101.973 C 44.558 102.822,44.515 102.864,43.666 102.864 C 42.818 102.864,42.775 102.907,42.775 103.756 C 42.775 104.604,42.733 104.647,41.884 104.647 C 41.035 104.647,40.993 104.689,40.993 105.538 C 40.993 106.387,40.951 106.429,40.102 106.429 C 39.253 106.429,39.211 106.471,39.211 107.320 C 39.211 108.169,39.168 108.211,38.320 108.211 C 37.411 108.211,37.331 108.349,37.352 109.881 C 37.354 110.028,37.050 110.105,36.677 110.050 C 35.847 109.928,35.287 110.523,35.447 111.358 C 35.538 111.832,35.468 111.936,35.121 111.846 C 34.297 111.630,33.547 112.255,33.665 113.059 C 33.764 113.734,33.705 113.793,32.863 113.864 L 31.954 113.940 31.954 158.243 L 31.954 202.546 32.767 202.625 C 33.474 202.693,33.589 202.809,33.658 203.516 C 33.723 204.185,33.883 204.371,34.564 204.572 C 35.083 204.725,35.391 204.979,35.391 205.254 C 35.391 205.878,36.088 206.493,36.794 206.493 C 37.287 206.493,37.411 206.642,37.476 207.320 C 37.546 208.044,37.657 208.158,38.368 208.226 C 39.076 208.295,39.191 208.410,39.259 209.117 C 39.328 209.825,39.443 209.940,40.150 210.009 C 40.858 210.077,40.973 210.192,41.042 210.900 C 41.110 211.607,41.225 211.722,41.933 211.791 C 42.640 211.859,42.755 211.975,42.824 212.682 C 42.892 213.390,43.008 213.505,43.715 213.573 C 44.423 213.642,44.538 213.757,44.606 214.464 C 44.675 215.172,44.790 215.287,45.497 215.356 C 46.203 215.424,46.320 215.540,46.389 216.239 C 46.453 216.895,46.615 217.085,47.269 217.272 C 47.866 217.442,48.107 217.685,48.215 218.225 C 48.326 218.780,48.556 219.001,49.196 219.166 C 49.852 219.336,50.059 219.544,50.160 220.131 C 50.268 220.755,50.425 220.892,51.115 220.958 C 51.840 221.028,51.941 221.129,51.941 221.781 C 51.941 222.856,50.155 222.807,85.933 222.731 L 118.778 222.661 119.018 221.846 C 119.212 221.188,119.408 221.016,120.036 220.955 C 120.706 220.889,120.826 220.765,120.893 220.066 C 120.962 219.359,121.077 219.243,121.785 219.175 C 122.492 219.106,122.607 218.991,122.676 218.284 C 122.744 217.576,122.859 217.461,123.567 217.392 C 124.305 217.321,124.387 217.227,124.458 216.359 C 124.533 215.456,124.585 215.404,125.413 215.404 C 126.244 215.404,126.289 215.359,126.289 214.513 C 126.289 213.664,126.331 213.622,127.180 213.622 C 128.026 213.622,128.071 213.577,128.071 212.746 C 128.071 211.918,128.123 211.866,129.026 211.791 C 129.894 211.719,129.988 211.638,130.060 210.900 C 130.128 210.192,130.243 210.077,130.951 210.009 C 131.658 209.940,131.773 209.825,131.842 209.117 C 131.910 208.410,132.026 208.295,132.733 208.226 C 133.440 208.158,133.556 208.043,133.624 207.335 C 133.693 206.628,133.808 206.513,134.515 206.444 C 135.223 206.376,135.338 206.260,135.406 205.553 C 135.475 204.845,135.590 204.730,136.298 204.662 C 137.036 204.590,137.117 204.496,137.189 203.628 C 137.264 202.725,137.316 202.673,138.144 202.673 C 138.706 202.673,139.020 202.551,139.020 202.332 C 139.020 202.145,139.421 201.627,139.911 201.181 L 140.802 200.370 140.798 116.544 C 140.796 64.190,140.704 32.575,140.553 32.336 C 140.263 31.877,114.763 31.622,114.067 32.071 M139.019 34.691 C 139.171 35.267,139.295 196.415,139.144 197.263 C 138.565 200.517,138.506 192.959,138.513 116.396 C 138.521 40.454,138.567 32.980,139.019 34.691 M180.395 93.189 C 180.055 93.565,179.610 93.698,178.700 93.698 C 178.022 93.698,177.462 93.784,177.457 93.889 C 177.351 96.003,177.468 118.701,177.585 118.891 C 177.700 119.077,187.177 119.160,208.417 119.160 L 239.083 119.160 239.083 126.416 L 239.083 133.673 209.612 133.684 C 177.147 133.696,177.194 133.694,177.554 135.215 C 177.625 135.515,177.482 135.586,176.962 135.510 C 176.180 135.395,175.430 135.997,175.430 136.739 C 175.430 137.071,175.171 137.289,174.602 137.436 C 173.917 137.612,173.761 137.786,173.696 138.447 C 173.628 139.137,173.508 139.255,172.805 139.323 C 172.097 139.391,171.982 139.507,171.914 140.214 C 171.845 140.922,171.730 141.037,171.023 141.105 C 170.315 141.174,170.200 141.289,170.131 141.996 C 170.063 142.704,169.948 142.819,169.240 142.888 C 168.533 142.956,168.418 143.071,168.349 143.779 C 168.281 144.486,168.165 144.601,167.458 144.670 C 166.747 144.739,166.635 144.852,166.566 145.576 C 166.502 146.232,166.370 146.404,165.929 146.407 C 165.160 146.413,164.842 146.673,164.651 147.453 C 164.533 147.937,164.275 148.163,163.715 148.275 C 163.110 148.396,162.910 148.597,162.789 149.200 C 162.670 149.794,162.453 150.017,161.839 150.175 C 161.188 150.342,161.030 150.524,160.965 151.177 C 160.897 151.868,160.778 151.986,160.074 152.054 C 159.367 152.122,159.251 152.237,159.183 152.945 C 159.114 153.652,158.999 153.768,158.292 153.836 C 157.593 153.904,157.469 154.023,157.403 154.693 C 157.342 155.321,157.170 155.518,156.512 155.712 L 155.697 155.952 155.632 178.420 L 155.567 200.889 156.557 201.850 C 157.101 202.378,157.589 203.028,157.640 203.294 C 157.692 203.560,158.078 203.968,158.498 204.200 C 158.924 204.435,159.299 204.876,159.346 205.197 C 159.400 205.570,159.734 205.899,160.295 206.133 C 161.248 206.532,162.445 207.698,163.213 208.975 C 163.486 209.430,163.880 209.803,164.089 209.803 C 164.298 209.803,164.650 210.155,164.873 210.585 C 165.096 211.016,165.607 211.483,166.008 211.623 C 166.410 211.763,166.921 212.156,167.144 212.495 C 167.366 212.835,167.697 213.113,167.879 213.113 C 168.062 213.113,168.317 213.539,168.447 214.059 C 168.636 214.819,168.842 215.051,169.490 215.236 C 170.023 215.388,170.349 215.671,170.449 216.068 C 170.541 216.436,170.855 216.734,171.257 216.835 C 171.674 216.939,172.009 217.268,172.170 217.731 C 172.326 218.180,172.667 218.523,173.049 218.619 C 173.483 218.728,173.719 219.007,173.825 219.537 C 173.933 220.078,174.208 220.396,174.773 220.632 C 175.211 220.815,176.004 221.375,176.536 221.876 L 177.503 222.788 210.474 222.788 C 244.933 222.788,244.430 222.805,244.430 221.662 C 244.430 221.178,244.603 221.030,245.321 220.895 C 246.027 220.763,246.213 220.608,246.213 220.154 C 246.213 219.424,246.666 218.969,247.392 218.969 C 247.824 218.969,247.981 218.799,248.042 218.269 C 248.104 217.729,248.311 217.513,248.948 217.325 C 249.607 217.131,249.806 216.912,249.931 216.243 C 250.064 215.533,250.197 215.404,250.797 215.404 C 251.516 215.404,251.814 215.025,251.814 214.110 C 251.814 213.770,251.992 213.622,252.400 213.622 C 253.146 213.622,253.596 213.171,253.596 212.425 C 253.596 212.018,253.745 211.840,254.085 211.840 C 255.012 211.840,255.379 211.543,255.379 210.794 C 255.379 210.238,255.498 210.057,255.867 210.057 C 256.782 210.057,257.161 209.759,257.161 209.040 C 257.161 208.432,257.287 208.308,258.052 208.164 C 258.758 208.032,258.943 207.878,258.943 207.423 C 258.943 206.693,259.396 206.238,260.123 206.238 C 260.554 206.238,260.711 206.069,260.772 205.538 C 260.835 204.998,261.042 204.782,261.679 204.595 C 262.337 204.401,262.536 204.182,262.662 203.512 C 262.796 202.795,262.925 202.673,263.550 202.673 C 264.615 202.673,264.563 205.186,264.487 157.734 L 264.418 113.940 263.590 113.860 C 262.935 113.797,262.762 113.665,262.759 113.224 C 262.753 112.452,262.493 112.136,261.701 111.943 C 261.209 111.822,260.974 111.562,260.851 111.001 C 260.722 110.417,260.505 110.191,259.969 110.084 C 259.443 109.979,259.197 109.732,259.028 109.140 C 258.842 108.487,258.651 108.324,257.996 108.260 C 257.297 108.192,257.181 108.074,257.112 107.369 C 257.044 106.661,256.929 106.546,256.221 106.478 C 255.514 106.409,255.399 106.294,255.330 105.587 C 255.262 104.879,255.146 104.764,254.439 104.695 C 253.732 104.627,253.616 104.512,253.548 103.804 C 253.479 103.097,253.364 102.982,252.657 102.913 C 251.949 102.845,251.834 102.729,251.765 102.022 C 251.697 101.311,251.583 101.199,250.859 101.130 C 250.204 101.066,250.031 100.934,250.028 100.493 C 250.022 99.701,249.747 99.366,248.935 99.162 C 248.415 99.032,248.184 98.784,248.075 98.237 C 247.964 97.681,247.748 97.455,247.226 97.351 C 246.713 97.248,246.465 96.997,246.298 96.409 C 246.111 95.756,245.921 95.593,245.265 95.529 C 244.566 95.461,244.450 95.343,244.382 94.638 L 244.303 93.826 242.192 93.751 C 240.500 93.692,239.982 93.578,239.582 93.179 C 238.789 92.386,181.113 92.396,180.395 93.189 M305.858 93.178 C 305.481 93.582,304.988 93.690,303.238 93.751 L 301.082 93.826 301.003 94.638 C 300.935 95.346,300.820 95.461,300.112 95.529 C 299.405 95.598,299.290 95.713,299.221 96.420 C 299.153 97.128,299.037 97.243,298.330 97.312 C 297.619 97.380,297.508 97.494,297.438 98.218 C 297.375 98.873,297.242 99.046,296.801 99.049 C 296.049 99.054,295.775 99.289,295.472 100.189 C 295.282 100.753,295.017 100.986,294.457 101.082 C 293.824 101.190,293.685 101.346,293.620 102.023 C 293.551 102.729,293.436 102.845,292.728 102.913 C 292.021 102.982,291.906 103.097,291.837 103.804 C 291.769 104.512,291.654 104.627,290.946 104.695 C 290.239 104.764,290.124 104.879,290.055 105.587 C 289.987 106.294,289.871 106.409,289.164 106.478 C 288.456 106.546,288.341 106.661,288.273 107.369 C 288.204 108.076,288.089 108.191,287.382 108.260 C 286.674 108.328,286.559 108.444,286.490 109.151 C 286.422 109.859,286.307 109.974,285.599 110.042 C 284.888 110.111,284.777 110.224,284.707 110.948 C 284.648 111.556,284.502 111.776,284.155 111.776 C 283.314 111.776,282.877 112.073,282.877 112.643 C 282.877 113.364,282.418 113.813,281.680 113.813 C 281.358 113.813,281.094 113.956,281.092 114.131 C 280.971 128.314,281.152 222.438,281.301 222.586 C 281.818 223.103,305.551 222.699,305.940 222.166 C 306.250 221.744,306.302 214.272,306.302 170.416 L 306.302 119.160 336.807 119.160 C 360.810 119.160,367.404 119.092,367.746 118.842 C 368.145 118.548,368.174 117.558,368.113 106.174 L 368.046 93.826 366.776 93.746 C 365.926 93.692,365.355 93.503,365.048 93.173 C 364.323 92.394,306.583 92.399,305.858 93.178 M305.318 94.665 C 304.986 94.717,304.610 94.655,304.482 94.527 C 304.341 94.385,304.578 94.348,305.084 94.432 C 305.791 94.549,305.827 94.585,305.318 94.665 M367.090 108.673 C 367.048 110.730,367.013 108.975,367.013 104.774 C 367.013 100.573,367.048 98.890,367.091 101.034 C 367.133 103.178,367.133 106.616,367.090 108.673 M367.600 109.166 C 367.557 111.372,367.523 109.567,367.523 105.156 C 367.523 100.745,367.557 98.940,367.600 101.146 C 367.642 103.351,367.642 106.961,367.600 109.166 M246.467 99.331 C 246.467 99.518,246.621 99.496,246.913 99.267 C 247.317 98.950,247.326 98.959,247.006 99.367 C 246.736 99.711,246.573 99.748,246.306 99.526 C 245.893 99.183,245.866 99.045,246.213 99.045 C 246.353 99.045,246.467 99.174,246.467 99.331 M262.226 114.543 C 262.069 114.596,261.840 114.482,261.719 114.289 C 261.533 113.997,261.497 113.998,261.493 114.301 C 261.491 114.499,261.421 114.593,261.337 114.509 C 260.970 114.142,261.530 113.834,262.013 114.136 C 262.296 114.312,262.388 114.489,262.226 114.543 M366.860 114.243 C 366.721 114.410,366.445 114.484,366.245 114.407 C 365.665 114.184,365.825 113.863,366.496 113.903 C 366.941 113.930,367.041 114.024,366.860 114.243 M367.409 116.015 C 367.409 116.074,367.151 115.979,366.836 115.805 C 366.521 115.630,366.169 115.514,366.054 115.547 C 365.938 115.581,365.916 115.492,366.003 115.350 C 366.146 115.118,367.409 115.716,367.409 116.015 M263.355 116.264 C 263.379 116.358,263.142 116.475,262.828 116.523 C 262.284 116.606,262.278 116.589,262.701 116.156 C 263.105 115.742,263.224 115.761,263.355 116.264 M85.551 117.377 C 107.719 117.377,113.787 117.310,114.068 117.059 C 114.367 116.793,114.375 116.807,114.121 117.146 C 113.954 117.369,113.893 117.627,113.985 117.719 C 114.077 117.811,101.386 117.887,85.782 117.887 L 57.411 117.887 57.065 117.314 C 56.793 116.864,56.791 116.809,57.055 117.059 C 57.319 117.310,63.371 117.377,85.551 117.377 M239.593 117.377 C 239.282 117.958,181.031 118.209,181.031 117.630 C 181.031 117.458,190.713 117.395,210.182 117.439 C 233.316 117.491,239.358 117.439,239.455 117.187 C 239.522 117.011,239.642 116.868,239.721 116.868 C 239.800 116.868,239.743 117.097,239.593 117.377 M263.401 157.556 L 263.404 197.199 263.337 157.910 C 263.293 131.883,263.185 118.674,263.016 118.778 C 262.868 118.870,262.763 118.592,262.763 118.105 C 262.763 117.442,262.826 117.339,263.081 117.594 C 263.333 117.846,263.400 126.183,263.401 157.556 M263.972 177.403 C 263.935 188.431,263.905 179.408,263.905 157.352 C 263.905 135.296,263.935 126.273,263.972 137.301 C 264.009 148.329,264.009 166.375,263.972 177.403 M362.954 117.632 C 362.850 117.799,353.106 117.887,334.549 117.887 C 315.887 117.887,306.302 117.800,306.302 117.632 C 306.302 117.464,315.940 117.377,334.706 117.377 C 353.578 117.377,363.058 117.463,362.954 117.632 M99.765 118.332 C 91.969 118.370,79.136 118.370,71.248 118.332 C 63.360 118.295,69.739 118.264,85.423 118.264 C 101.108 118.264,107.561 118.295,99.765 118.332 M224.634 118.332 C 216.617 118.370,203.498 118.370,195.481 118.332 C 187.463 118.295,194.023 118.264,210.057 118.264 C 226.092 118.264,232.651 118.295,224.634 118.332 M348.759 118.332 C 340.952 118.370,328.176 118.370,320.369 118.332 C 312.562 118.295,318.950 118.264,334.564 118.264 C 350.178 118.264,356.566 118.295,348.759 118.332 M113.558 158.243 L 113.558 197.327 85.423 197.327 L 57.288 197.327 57.288 158.243 L 57.288 119.160 85.423 119.160 L 113.558 119.160 113.558 158.243 M303.342 121.738 C 303.857 124.311,303.484 217.109,302.961 216.785 C 302.666 216.603,302.665 120.942,302.960 120.942 C 303.082 120.942,303.254 121.300,303.342 121.738 M174.025 141.318 C 173.948 141.442,173.708 141.475,173.491 141.392 C 173.182 141.274,173.167 141.196,173.423 141.038 C 173.809 140.799,174.226 140.993,174.025 141.318 M159.071 187.842 C 159.032 193.129,159.001 188.803,159.001 178.230 C 159.001 167.658,159.032 163.332,159.071 168.619 C 159.109 173.905,159.109 182.556,159.071 187.842 M157.861 178.740 C 157.861 190.961,157.774 197.327,157.607 197.327 C 157.439 197.327,157.353 191.154,157.355 179.313 C 157.359 163.175,157.423 160.153,157.764 160.153 C 157.817 160.153,157.861 168.517,157.861 178.740 M179.733 161.505 C 179.709 162.024,179.693 162.018,179.504 161.426 C 179.391 161.076,179.260 169.039,179.212 179.122 L 179.125 197.454 179.057 179.376 C 179.020 169.433,179.047 161.148,179.118 160.964 C 179.308 160.465,179.762 160.863,179.733 161.505 M239.083 179.122 L 239.083 197.327 210.821 197.327 L 182.559 197.327 182.559 179.122 L 182.559 160.917 210.821 160.917 L 239.083 160.917 239.083 179.122 M180.777 179.758 C 180.777 189.421,180.691 197.327,180.586 197.327 C 180.481 197.327,180.425 189.421,180.462 179.758 C 180.499 170.095,180.585 162.190,180.653 162.190 C 180.721 162.190,180.777 170.095,180.777 179.758 M137.158 196.754 C 137.094 196.999,137.042 196.798,137.042 196.308 C 137.042 195.818,137.094 195.617,137.158 195.863 C 137.222 196.108,137.222 196.509,137.158 196.754 M180.075 196.945 C 180.008 197.295,179.909 197.581,179.856 197.581 C 179.802 197.581,179.758 197.295,179.758 196.945 C 179.758 196.595,179.857 196.308,179.977 196.308 C 180.098 196.308,180.142 196.595,180.075 196.945 M159.886 202.885 C 159.255 202.983,159.016 202.817,159.248 202.441 C 159.360 202.260,159.575 202.275,159.920 202.488 C 160.421 202.797,160.421 202.802,159.886 202.885 M164.736 207.144 C 164.736 207.394,164.854 207.470,165.054 207.350 C 165.308 207.197,165.308 207.238,165.056 207.549 C 164.882 207.764,164.825 208.030,164.929 208.141 C 165.033 208.251,164.859 208.184,164.542 207.991 C 164.226 207.798,164.076 207.604,164.210 207.559 C 164.343 207.515,164.390 207.314,164.312 207.113 C 164.235 206.912,164.299 206.747,164.454 206.747 C 164.609 206.747,164.736 206.926,164.736 207.144 M166.927 209.733 C 166.658 210.002,166.434 209.896,166.372 209.470 C 166.317 209.096,166.373 209.067,166.672 209.316 C 166.874 209.483,166.989 209.671,166.927 209.733 M253.231 210.549 C 253.011 210.791,252.914 211.072,253.015 211.174 C 253.116 211.275,252.997 211.280,252.750 211.185 C 252.273 211.002,252.317 210.395,252.801 210.503 C 252.958 210.538,253.087 210.388,253.087 210.170 C 253.087 209.951,253.209 209.848,253.358 209.940 C 253.538 210.051,253.495 210.256,253.231 210.549 M250.286 213.395 C 250.286 213.520,250.134 213.622,249.947 213.622 C 249.760 213.622,249.607 213.461,249.607 213.264 C 249.607 213.068,249.760 212.965,249.947 213.037 C 250.134 213.109,250.286 213.269,250.286 213.395 M172.812 215.013 C 172.922 215.133,172.876 215.154,172.710 215.059 C 172.545 214.964,172.338 215.003,172.250 215.145 C 172.100 215.388,172.604 215.517,173.329 215.423 C 173.504 215.400,173.647 215.602,173.647 215.871 C 173.647 216.140,173.822 216.505,174.035 216.682 C 174.249 216.860,174.364 217.064,174.292 217.136 C 174.220 217.208,174.301 217.449,174.473 217.672 C 174.669 217.928,174.577 217.901,174.222 217.598 C 173.912 217.334,173.721 217.019,173.796 216.898 C 173.871 216.777,173.820 216.677,173.684 216.677 C 173.547 216.677,173.368 216.820,173.285 216.996 C 173.203 217.171,173.195 216.999,173.269 216.614 C 173.342 216.228,173.286 215.899,173.143 215.882 C 173.000 215.864,172.769 215.821,172.629 215.786 C 172.489 215.751,172.267 215.708,172.135 215.691 C 172.004 215.673,171.913 215.443,171.933 215.180 C 171.969 214.698,172.444 214.608,172.812 215.013 M247.568 216.270 C 247.688 216.584,247.504 216.624,246.770 216.442 C 246.727 216.431,246.763 216.308,246.849 216.168 C 247.073 215.806,247.408 215.853,247.568 216.270 M238.765 221.945 C 238.520 222.009,238.119 222.009,237.874 221.945 C 237.629 221.881,237.829 221.829,238.320 221.829 C 238.810 221.829,239.010 221.881,238.765 221.945 M300.637 221.945 C 300.391 222.009,299.990 222.009,299.745 221.945 C 299.500 221.881,299.701 221.829,300.191 221.829 C 300.681 221.829,300.882 221.881,300.637 221.945 " stroke="none" fill="#2cdcc4" fill-rule="evenodd"></path><path id="path1" d="M177.328 106.174 C 177.328 111.846,177.362 114.166,177.403 111.330 C 177.444 108.495,177.444 103.854,177.403 101.018 C 177.362 98.183,177.328 100.503,177.328 106.174 M280.965 168.046 C 280.965 196.544,280.995 208.202,281.031 193.953 C 281.068 179.704,281.068 156.388,281.031 142.139 C 280.995 127.890,280.965 139.548,280.965 168.046 " stroke="none" fill="#34dcc4" fill-rule="evenodd"></path><path id="path2" d="M138.686 34.537 C 138.410 34.813,138.475 198.090,138.751 198.090 C 138.886 198.090,139.063 197.718,139.144 197.263 C 139.295 196.415,139.171 35.267,139.019 34.691 C 138.922 34.324,138.906 34.317,138.686 34.537 M304.482 94.527 C 304.610 94.655,304.986 94.717,305.318 94.665 C 305.827 94.585,305.791 94.549,305.084 94.432 C 304.578 94.348,304.341 94.385,304.482 94.527 M367.013 104.774 C 367.013 108.975,367.048 110.730,367.090 108.673 C 367.133 106.616,367.133 103.178,367.091 101.034 C 367.048 98.890,367.013 100.573,367.013 104.774 M367.523 105.156 C 367.523 109.567,367.557 111.372,367.600 109.166 C 367.642 106.961,367.642 103.351,367.600 101.146 C 367.557 98.940,367.523 100.745,367.523 105.156 M245.958 99.141 C 245.958 99.602,246.697 99.760,247.006 99.367 C 247.326 98.959,247.317 98.950,246.913 99.267 C 246.621 99.496,246.467 99.518,246.467 99.331 C 246.467 99.174,246.353 99.045,246.213 99.045 C 246.073 99.045,245.958 99.088,245.958 99.141 M261.348 114.090 C 261.258 114.236,261.253 114.425,261.337 114.509 C 261.421 114.593,261.491 114.499,261.493 114.301 C 261.497 113.998,261.533 113.997,261.719 114.289 C 261.840 114.482,262.069 114.596,262.226 114.543 C 262.388 114.489,262.296 114.312,262.013 114.136 C 261.673 113.923,261.460 113.909,261.348 114.090 M365.882 114.067 C 365.882 114.425,366.601 114.555,366.860 114.243 C 367.041 114.024,366.941 113.930,366.496 113.903 C 366.158 113.883,365.882 113.957,365.882 114.067 M366.003 115.350 C 365.916 115.492,365.938 115.581,366.054 115.547 C 366.169 115.514,366.521 115.630,366.836 115.805 C 367.604 116.230,367.568 116.012,366.786 115.500 C 366.392 115.242,366.104 115.186,366.003 115.350 M262.701 116.156 C 262.278 116.589,262.284 116.606,262.828 116.523 C 263.142 116.475,263.379 116.358,263.355 116.264 C 263.224 115.761,263.105 115.742,262.701 116.156 M57.065 117.314 L 57.411 117.887 85.782 117.887 C 101.386 117.887,114.077 117.811,113.985 117.719 C 113.893 117.627,113.954 117.369,114.121 117.146 C 114.375 116.807,114.367 116.793,114.068 117.059 C 113.787 117.310,107.719 117.377,85.551 117.377 C 63.371 117.377,57.319 117.310,57.055 117.059 C 56.791 116.809,56.793 116.864,57.065 117.314 M239.455 117.187 C 239.358 117.439,233.316 117.491,210.182 117.439 C 190.713 117.395,181.031 117.458,181.031 117.630 C 181.031 118.209,239.282 117.958,239.593 117.377 C 239.743 117.097,239.800 116.868,239.721 116.868 C 239.642 116.868,239.522 117.011,239.455 117.187 M262.763 118.105 C 262.763 118.592,262.868 118.870,263.016 118.778 C 263.185 118.674,263.293 131.883,263.337 157.910 L 263.404 197.199 263.401 157.556 C 263.400 126.183,263.333 117.846,263.081 117.594 C 262.826 117.339,262.763 117.442,262.763 118.105 M263.905 157.352 C 263.905 179.408,263.935 188.431,263.972 177.403 C 264.009 166.375,264.009 148.329,263.972 137.301 C 263.935 126.273,263.905 135.296,263.905 157.352 M306.302 117.632 C 306.302 117.800,315.887 117.887,334.549 117.887 C 353.106 117.887,362.850 117.799,362.954 117.632 C 363.058 117.463,353.578 117.377,334.706 117.377 C 315.940 117.377,306.302 117.464,306.302 117.632 M71.248 118.332 C 79.136 118.370,91.969 118.370,99.765 118.332 C 107.561 118.295,101.108 118.264,85.423 118.264 C 69.739 118.264,63.360 118.295,71.248 118.332 M195.481 118.332 C 203.498 118.370,216.617 118.370,224.634 118.332 C 232.651 118.295,226.092 118.264,210.057 118.264 C 194.023 118.264,187.463 118.295,195.481 118.332 M320.369 118.332 C 328.176 118.370,340.952 118.370,348.759 118.332 C 356.566 118.295,350.178 118.264,334.564 118.264 C 318.950 118.264,312.562 118.295,320.369 118.332 M302.737 168.795 C 302.737 212.456,302.818 218.757,303.343 216.132 C 303.857 213.561,303.484 120.942,302.960 120.942 C 302.833 120.942,302.737 141.620,302.737 168.795 M173.423 141.038 C 173.167 141.196,173.182 141.274,173.491 141.392 C 173.708 141.475,173.948 141.442,174.025 141.318 C 174.226 140.993,173.809 140.799,173.423 141.038 M159.001 178.230 C 159.001 188.803,159.032 193.129,159.071 187.842 C 159.109 182.556,159.109 173.905,159.071 168.619 C 159.032 163.332,159.001 167.658,159.001 178.230 M157.512 160.726 C 157.238 161.750,157.329 197.327,157.607 197.327 C 157.774 197.327,157.861 190.961,157.861 178.740 C 157.861 168.517,157.817 160.153,157.764 160.153 C 157.710 160.153,157.597 160.411,157.512 160.726 M179.118 160.964 C 179.047 161.148,179.020 169.433,179.057 179.376 L 179.125 197.454 179.212 179.122 C 179.260 169.039,179.391 161.076,179.504 161.426 C 179.693 162.018,179.709 162.024,179.733 161.505 C 179.762 160.863,179.308 160.465,179.118 160.964 M180.462 179.758 C 180.425 189.421,180.481 197.327,180.586 197.327 C 180.691 197.327,180.777 189.421,180.777 179.758 C 180.777 170.095,180.721 162.190,180.653 162.190 C 180.585 162.190,180.499 170.095,180.462 179.758 M137.042 196.308 C 137.042 196.798,137.094 196.999,137.158 196.754 C 137.222 196.509,137.222 196.108,137.158 195.863 C 137.094 195.617,137.042 195.818,137.042 196.308 M179.758 196.945 C 179.758 197.295,179.802 197.581,179.856 197.581 C 179.909 197.581,180.008 197.295,180.075 196.945 C 180.142 196.595,180.098 196.308,179.977 196.308 C 179.857 196.308,179.758 196.595,179.758 196.945 M159.257 202.426 C 159.088 202.701,159.721 203.029,160.147 202.888 C 160.293 202.839,160.187 202.659,159.912 202.487 C 159.595 202.289,159.356 202.266,159.257 202.426 M164.312 207.113 C 164.390 207.314,164.343 207.515,164.210 207.559 C 164.076 207.604,164.226 207.798,164.542 207.991 C 164.859 208.184,165.033 208.251,164.929 208.141 C 164.825 208.030,164.882 207.764,165.056 207.549 C 165.308 207.238,165.308 207.197,165.054 207.350 C 164.854 207.470,164.736 207.394,164.736 207.144 C 164.736 206.926,164.609 206.747,164.454 206.747 C 164.299 206.747,164.235 206.912,164.312 207.113 M166.372 209.470 C 166.409 209.723,166.524 209.911,166.627 209.888 C 167.014 209.800,167.029 209.612,166.672 209.316 C 166.373 209.067,166.317 209.096,166.372 209.470 M253.087 210.170 C 253.087 210.388,252.958 210.538,252.801 210.503 C 252.317 210.395,252.273 211.002,252.750 211.185 C 252.997 211.280,253.116 211.275,253.015 211.174 C 252.914 211.072,253.011 210.791,253.231 210.549 C 253.495 210.256,253.538 210.051,253.358 209.940 C 253.209 209.848,253.087 209.951,253.087 210.170 M249.607 213.264 C 249.607 213.461,249.760 213.622,249.947 213.622 C 250.134 213.622,250.286 213.520,250.286 213.395 C 250.286 213.269,250.134 213.109,249.947 213.037 C 249.760 212.965,249.607 213.068,249.607 213.264 M172.463 215.721 C 172.394 215.834,172.431 215.910,172.546 215.890 C 173.220 215.773,173.394 215.952,173.250 216.614 C 173.142 217.105,173.170 217.209,173.344 216.963 C 173.599 216.600,174.265 216.805,174.036 217.175 C 173.965 217.290,174.107 217.540,174.350 217.731 C 174.741 218.037,174.756 218.030,174.477 217.672 C 174.303 217.449,174.220 217.208,174.292 217.136 C 174.364 217.064,174.249 216.860,174.035 216.682 C 173.822 216.505,173.647 216.152,173.647 215.898 C 173.647 215.429,172.729 215.291,172.463 215.721 M246.849 216.168 C 246.763 216.308,246.727 216.431,246.770 216.442 C 247.504 216.624,247.688 216.584,247.568 216.270 C 247.408 215.853,247.073 215.806,246.849 216.168 M237.874 221.945 C 238.119 222.009,238.520 222.009,238.765 221.945 C 239.010 221.881,238.810 221.829,238.320 221.829 C 237.829 221.829,237.629 221.881,237.874 221.945 M299.745 221.945 C 299.990 222.009,300.391 222.009,300.637 221.945 C 300.882 221.881,300.681 221.829,300.191 221.829 C 299.701 221.829,299.500 221.881,299.745 221.945 " stroke="none" fill="#30dcc4" fill-rule="evenodd"></path><path id="path3" d="M138.686 34.537 C 138.410 34.813,138.475 198.090,138.751 198.090 C 138.886 198.090,139.063 197.718,139.144 197.263 C 139.295 196.415,139.171 35.267,139.019 34.691 C 138.922 34.324,138.906 34.317,138.686 34.537 M304.482 94.527 C 304.610 94.655,304.986 94.717,305.318 94.665 C 305.827 94.585,305.791 94.549,305.084 94.432 C 304.578 94.348,304.341 94.385,304.482 94.527 M367.013 104.774 C 367.013 108.975,367.048 110.730,367.090 108.673 C 367.133 106.616,367.133 103.178,367.091 101.034 C 367.048 98.890,367.013 100.573,367.013 104.774 M367.523 105.156 C 367.523 109.567,367.557 111.372,367.600 109.166 C 367.642 106.961,367.642 103.351,367.600 101.146 C 367.557 98.940,367.523 100.745,367.523 105.156 M245.958 99.141 C 245.958 99.602,246.697 99.760,247.006 99.367 C 247.326 98.959,247.317 98.950,246.913 99.267 C 246.621 99.496,246.467 99.518,246.467 99.331 C 246.467 99.174,246.353 99.045,246.213 99.045 C 246.073 99.045,245.958 99.088,245.958 99.141 M261.348 114.090 C 261.258 114.236,261.253 114.425,261.337 114.509 C 261.421 114.593,261.491 114.499,261.493 114.301 C 261.497 113.998,261.533 113.997,261.719 114.289 C 261.840 114.482,262.069 114.596,262.226 114.543 C 262.388 114.489,262.296 114.312,262.013 114.136 C 261.673 113.923,261.460 113.909,261.348 114.090 M365.882 114.067 C 365.882 114.425,366.601 114.555,366.860 114.243 C 367.041 114.024,366.941 113.930,366.496 113.903 C 366.158 113.883,365.882 113.957,365.882 114.067 M366.003 115.350 C 365.916 115.492,365.938 115.581,366.054 115.547 C 366.169 115.514,366.521 115.630,366.836 115.805 C 367.604 116.230,367.568 116.012,366.786 115.500 C 366.392 115.242,366.104 115.186,366.003 115.350 M262.701 116.156 C 262.278 116.589,262.284 116.606,262.828 116.523 C 263.142 116.475,263.379 116.358,263.355 116.264 C 263.224 115.761,263.105 115.742,262.701 116.156 M57.065 117.314 L 57.411 117.887 85.782 117.887 C 101.386 117.887,114.077 117.811,113.985 117.719 C 113.893 117.627,113.954 117.369,114.121 117.146 C 114.375 116.807,114.367 116.793,114.068 117.059 C 113.787 117.310,107.719 117.377,85.551 117.377 C 63.371 117.377,57.319 117.310,57.055 117.059 C 56.791 116.809,56.793 116.864,57.065 117.314 M239.455 117.187 C 239.358 117.439,233.316 117.491,210.182 117.439 C 190.713 117.395,181.031 117.458,181.031 117.630 C 181.031 118.209,239.282 117.958,239.593 117.377 C 239.743 117.097,239.800 116.868,239.721 116.868 C 239.642 116.868,239.522 117.011,239.455 117.187 M262.763 118.105 C 262.763 118.592,262.868 118.870,263.016 118.778 C 263.185 118.674,263.293 131.883,263.337 157.910 L 263.404 197.199 263.401 157.556 C 263.400 126.183,263.333 117.846,263.081 117.594 C 262.826 117.339,262.763 117.442,262.763 118.105 M263.905 157.352 C 263.905 179.408,263.935 188.431,263.972 177.403 C 264.009 166.375,264.009 148.329,263.972 137.301 C 263.935 126.273,263.905 135.296,263.905 157.352 M306.302 117.632 C 306.302 117.800,315.887 117.887,334.549 117.887 C 353.106 117.887,362.850 117.799,362.954 117.632 C 363.058 117.463,353.578 117.377,334.706 117.377 C 315.940 117.377,306.302 117.464,306.302 117.632 M71.248 118.332 C 79.136 118.370,91.969 118.370,99.765 118.332 C 107.561 118.295,101.108 118.264,85.423 118.264 C 69.739 118.264,63.360 118.295,71.248 118.332 M195.481 118.332 C 203.498 118.370,216.617 118.370,224.634 118.332 C 232.651 118.295,226.092 118.264,210.057 118.264 C 194.023 118.264,187.463 118.295,195.481 118.332 M320.369 118.332 C 328.176 118.370,340.952 118.370,348.759 118.332 C 356.566 118.295,350.178 118.264,334.564 118.264 C 318.950 118.264,312.562 118.295,320.369 118.332 M302.737 168.795 C 302.737 212.456,302.818 218.757,303.343 216.132 C 303.857 213.561,303.484 120.942,302.960 120.942 C 302.833 120.942,302.737 141.620,302.737 168.795 M173.423 141.038 C 173.167 141.196,173.182 141.274,173.491 141.392 C 173.708 141.475,173.948 141.442,174.025 141.318 C 174.226 140.993,173.809 140.799,173.423 141.038 M159.001 178.230 C 159.001 188.803,159.032 193.129,159.071 187.842 C 159.109 182.556,159.109 173.905,159.071 168.619 C 159.032 163.332,159.001 167.658,159.001 178.230 M157.512 160.726 C 157.238 161.750,157.329 197.327,157.607 197.327 C 157.774 197.327,157.861 190.961,157.861 178.740 C 157.861 168.517,157.817 160.153,157.764 160.153 C 157.710 160.153,157.597 160.411,157.512 160.726 M179.118 160.964 C 179.047 161.148,179.020 169.433,179.057 179.376 L 179.125 197.454 179.212 179.122 C 179.260 169.039,179.391 161.076,179.504 161.426 C 179.693 162.018,179.709 162.024,179.733 161.505 C 179.762 160.863,179.308 160.465,179.118 160.964 M180.462 179.758 C 180.425 189.421,180.481 197.327,180.586 197.327 C 180.691 197.327,180.777 189.421,180.777 179.758 C 180.777 170.095,180.721 162.190,180.653 162.190 C 180.585 162.190,180.499 170.095,180.462 179.758 M137.042 196.308 C 137.042 196.798,137.094 196.999,137.158 196.754 C 137.222 196.509,137.222 196.108,137.158 195.863 C 137.094 195.617,137.042 195.818,137.042 196.308 M179.758 196.945 C 179.758 197.295,179.802 197.581,179.856 197.581 C 179.909 197.581,180.008 197.295,180.075 196.945 C 180.142 196.595,180.098 196.308,179.977 196.308 C 179.857 196.308,179.758 196.595,179.758 196.945 M159.257 202.426 C 159.088 202.701,159.721 203.029,160.147 202.888 C 160.293 202.839,160.187 202.659,159.912 202.487 C 159.595 202.289,159.356 202.266,159.257 202.426 M164.312 207.113 C 164.390 207.314,164.343 207.515,164.210 207.559 C 164.076 207.604,164.226 207.798,164.542 207.991 C 164.859 208.184,165.033 208.251,164.929 208.141 C 164.825 208.030,164.882 207.764,165.056 207.549 C 165.308 207.238,165.308 207.197,165.054 207.350 C 164.854 207.470,164.736 207.394,164.736 207.144 C 164.736 206.926,164.609 206.747,164.454 206.747 C 164.299 206.747,164.235 206.912,164.312 207.113 M166.372 209.470 C 166.409 209.723,166.524 209.911,166.627 209.888 C 167.014 209.800,167.029 209.612,166.672 209.316 C 166.373 209.067,166.317 209.096,166.372 209.470 M253.087 210.170 C 253.087 210.388,252.958 210.538,252.801 210.503 C 252.317 210.395,252.273 211.002,252.750 211.185 C 252.997 211.280,253.116 211.275,253.015 211.174 C 252.914 211.072,253.011 210.791,253.231 210.549 C 253.495 210.256,253.538 210.051,253.358 209.940 C 253.209 209.848,253.087 209.951,253.087 210.170 M249.607 213.264 C 249.607 213.461,249.760 213.622,249.947 213.622 C 250.134 213.622,250.286 213.520,250.286 213.395 C 250.286 213.269,250.134 213.109,249.947 213.037 C 249.760 212.965,249.607 213.068,249.607 213.264 M172.463 215.721 C 172.394 215.834,172.431 215.910,172.546 215.890 C 173.220 215.773,173.394 215.952,173.250 216.614 C 173.142 217.105,173.170 217.209,173.344 216.963 C 173.599 216.600,174.265 216.805,174.036 217.175 C 173.965 217.290,174.107 217.540,174.350 217.731 C 174.741 218.037,174.756 218.030,174.477 217.672 C 174.303 217.449,174.220 217.208,174.292 217.136 C 174.364 217.064,174.249 216.860,174.035 216.682 C 173.822 216.505,173.647 216.152,173.647 215.898 C 173.647 215.429,172.729 215.291,172.463 215.721 M246.849 216.168 C 246.763 216.308,246.727 216.431,246.770 216.442 C 247.504 216.624,247.688 216.584,247.568 216.270 C 247.408 215.853,247.073 215.806,246.849 216.168 M237.874 221.945 C 238.119 222.009,238.520 222.009,238.765 221.945 C 239.010 221.881,238.810 221.829,238.320 221.829 C 237.829 221.829,237.629 221.881,237.874 221.945 M299.745 221.945 C 299.990 222.009,300.391 222.009,300.637 221.945 C 300.882 221.881,300.681 221.829,300.191 221.829 C 299.701 221.829,299.500 221.881,299.745 221.945 " stroke="none" fill="#30dcc4" fill-rule="evenodd"></path><path id="path4" d="M138.686 34.537 C 138.410 34.813,138.475 198.090,138.751 198.090 C 138.886 198.090,139.063 197.718,139.144 197.263 C 139.295 196.415,139.171 35.267,139.019 34.691 C 138.922 34.324,138.906 34.317,138.686 34.537 M304.482 94.527 C 304.610 94.655,304.986 94.717,305.318 94.665 C 305.827 94.585,305.791 94.549,305.084 94.432 C 304.578 94.348,304.341 94.385,304.482 94.527 M367.013 104.774 C 367.013 108.975,367.048 110.730,367.090 108.673 C 367.133 106.616,367.133 103.178,367.091 101.034 C 367.048 98.890,367.013 100.573,367.013 104.774 M367.523 105.156 C 367.523 109.567,367.557 111.372,367.600 109.166 C 367.642 106.961,367.642 103.351,367.600 101.146 C 367.557 98.940,367.523 100.745,367.523 105.156 M245.958 99.141 C 245.958 99.602,246.697 99.760,247.006 99.367 C 247.326 98.959,247.317 98.950,246.913 99.267 C 246.621 99.496,246.467 99.518,246.467 99.331 C 246.467 99.174,246.353 99.045,246.213 99.045 C 246.073 99.045,245.958 99.088,245.958 99.141 M261.348 114.090 C 261.258 114.236,261.253 114.425,261.337 114.509 C 261.421 114.593,261.491 114.499,261.493 114.301 C 261.497 113.998,261.533 113.997,261.719 114.289 C 261.840 114.482,262.069 114.596,262.226 114.543 C 262.388 114.489,262.296 114.312,262.013 114.136 C 261.673 113.923,261.460 113.909,261.348 114.090 M365.882 114.067 C 365.882 114.425,366.601 114.555,366.860 114.243 C 367.041 114.024,366.941 113.930,366.496 113.903 C 366.158 113.883,365.882 113.957,365.882 114.067 M366.003 115.350 C 365.916 115.492,365.938 115.581,366.054 115.547 C 366.169 115.514,366.521 115.630,366.836 115.805 C 367.604 116.230,367.568 116.012,366.786 115.500 C 366.392 115.242,366.104 115.186,366.003 115.350 M262.701 116.156 C 262.278 116.589,262.284 116.606,262.828 116.523 C 263.142 116.475,263.379 116.358,263.355 116.264 C 263.224 115.761,263.105 115.742,262.701 116.156 M57.065 117.314 L 57.411 117.887 85.782 117.887 C 101.386 117.887,114.077 117.811,113.985 117.719 C 113.893 117.627,113.954 117.369,114.121 117.146 C 114.375 116.807,114.367 116.793,114.068 117.059 C 113.787 117.310,107.719 117.377,85.551 117.377 C 63.371 117.377,57.319 117.310,57.055 117.059 C 56.791 116.809,56.793 116.864,57.065 117.314 M239.455 117.187 C 239.358 117.439,233.316 117.491,210.182 117.439 C 190.713 117.395,181.031 117.458,181.031 117.630 C 181.031 118.209,239.282 117.958,239.593 117.377 C 239.743 117.097,239.800 116.868,239.721 116.868 C 239.642 116.868,239.522 117.011,239.455 117.187 M262.763 118.105 C 262.763 118.592,262.868 118.870,263.016 118.778 C 263.185 118.674,263.293 131.883,263.337 157.910 L 263.404 197.199 263.401 157.556 C 263.400 126.183,263.333 117.846,263.081 117.594 C 262.826 117.339,262.763 117.442,262.763 118.105 M263.905 157.352 C 263.905 179.408,263.935 188.431,263.972 177.403 C 264.009 166.375,264.009 148.329,263.972 137.301 C 263.935 126.273,263.905 135.296,263.905 157.352 M306.302 117.632 C 306.302 117.800,315.887 117.887,334.549 117.887 C 353.106 117.887,362.850 117.799,362.954 117.632 C 363.058 117.463,353.578 117.377,334.706 117.377 C 315.940 117.377,306.302 117.464,306.302 117.632 M71.248 118.332 C 79.136 118.370,91.969 118.370,99.765 118.332 C 107.561 118.295,101.108 118.264,85.423 118.264 C 69.739 118.264,63.360 118.295,71.248 118.332 M195.481 118.332 C 203.498 118.370,216.617 118.370,224.634 118.332 C 232.651 118.295,226.092 118.264,210.057 118.264 C 194.023 118.264,187.463 118.295,195.481 118.332 M320.369 118.332 C 328.176 118.370,340.952 118.370,348.759 118.332 C 356.566 118.295,350.178 118.264,334.564 118.264 C 318.950 118.264,312.562 118.295,320.369 118.332 M302.737 168.795 C 302.737 212.456,302.818 218.757,303.343 216.132 C 303.857 213.561,303.484 120.942,302.960 120.942 C 302.833 120.942,302.737 141.620,302.737 168.795 M173.423 141.038 C 173.167 141.196,173.182 141.274,173.491 141.392 C 173.708 141.475,173.948 141.442,174.025 141.318 C 174.226 140.993,173.809 140.799,173.423 141.038 M159.001 178.230 C 159.001 188.803,159.032 193.129,159.071 187.842 C 159.109 182.556,159.109 173.905,159.071 168.619 C 159.032 163.332,159.001 167.658,159.001 178.230 M157.512 160.726 C 157.238 161.750,157.329 197.327,157.607 197.327 C 157.774 197.327,157.861 190.961,157.861 178.740 C 157.861 168.517,157.817 160.153,157.764 160.153 C 157.710 160.153,157.597 160.411,157.512 160.726 M179.118 160.964 C 179.047 161.148,179.020 169.433,179.057 179.376 L 179.125 197.454 179.212 179.122 C 179.260 169.039,179.391 161.076,179.504 161.426 C 179.693 162.018,179.709 162.024,179.733 161.505 C 179.762 160.863,179.308 160.465,179.118 160.964 M180.462 179.758 C 180.425 189.421,180.481 197.327,180.586 197.327 C 180.691 197.327,180.777 189.421,180.777 179.758 C 180.777 170.095,180.721 162.190,180.653 162.190 C 180.585 162.190,180.499 170.095,180.462 179.758 M137.042 196.308 C 137.042 196.798,137.094 196.999,137.158 196.754 C 137.222 196.509,137.222 196.108,137.158 195.863 C 137.094 195.617,137.042 195.818,137.042 196.308 M179.758 196.945 C 179.758 197.295,179.802 197.581,179.856 197.581 C 179.909 197.581,180.008 197.295,180.075 196.945 C 180.142 196.595,180.098 196.308,179.977 196.308 C 179.857 196.308,179.758 196.595,179.758 196.945 M159.257 202.426 C 159.088 202.701,159.721 203.029,160.147 202.888 C 160.293 202.839,160.187 202.659,159.912 202.487 C 159.595 202.289,159.356 202.266,159.257 202.426 M164.312 207.113 C 164.390 207.314,164.343 207.515,164.210 207.559 C 164.076 207.604,164.226 207.798,164.542 207.991 C 164.859 208.184,165.033 208.251,164.929 208.141 C 164.825 208.030,164.882 207.764,165.056 207.549 C 165.308 207.238,165.308 207.197,165.054 207.350 C 164.854 207.470,164.736 207.394,164.736 207.144 C 164.736 206.926,164.609 206.747,164.454 206.747 C 164.299 206.747,164.235 206.912,164.312 207.113 M166.372 209.470 C 166.409 209.723,166.524 209.911,166.627 209.888 C 167.014 209.800,167.029 209.612,166.672 209.316 C 166.373 209.067,166.317 209.096,166.372 209.470 M253.087 210.170 C 253.087 210.388,252.958 210.538,252.801 210.503 C 252.317 210.395,252.273 211.002,252.750 211.185 C 252.997 211.280,253.116 211.275,253.015 211.174 C 252.914 211.072,253.011 210.791,253.231 210.549 C 253.495 210.256,253.538 210.051,253.358 209.940 C 253.209 209.848,253.087 209.951,253.087 210.170 M249.607 213.264 C 249.607 213.461,249.760 213.622,249.947 213.622 C 250.134 213.622,250.286 213.520,250.286 213.395 C 250.286 213.269,250.134 213.109,249.947 213.037 C 249.760 212.965,249.607 213.068,249.607 213.264 M172.463 215.721 C 172.394 215.834,172.431 215.910,172.546 215.890 C 173.220 215.773,173.394 215.952,173.250 216.614 C 173.142 217.105,173.170 217.209,173.344 216.963 C 173.599 216.600,174.265 216.805,174.036 217.175 C 173.965 217.290,174.107 217.540,174.350 217.731 C 174.741 218.037,174.756 218.030,174.477 217.672 C 174.303 217.449,174.220 217.208,174.292 217.136 C 174.364 217.064,174.249 216.860,174.035 216.682 C 173.822 216.505,173.647 216.152,173.647 215.898 C 173.647 215.429,172.729 215.291,172.463 215.721 M246.849 216.168 C 246.763 216.308,246.727 216.431,246.770 216.442 C 247.504 216.624,247.688 216.584,247.568 216.270 C 247.408 215.853,247.073 215.806,246.849 216.168 M237.874 221.945 C 238.119 222.009,238.520 222.009,238.765 221.945 C 239.010 221.881,238.810 221.829,238.320 221.829 C 237.829 221.829,237.629 221.881,237.874 221.945 M299.745 221.945 C 299.990 222.009,300.391 222.009,300.637 221.945 C 300.882 221.881,300.681 221.829,300.191 221.829 C 299.701 221.829,299.500 221.881,299.745 221.945 " stroke="none" fill="#30dcc4" fill-rule="evenodd"></path></g></svg>